IKResults
version=1
nRows=4
nColumns=63
inDegrees=yes

Units are S.I. units (second, meters, Newtons, ...)
If the header above contains a line with 'inDegrees', this indicates whether rotational values are in degrees (yes) or radians (no).

endheader
time	pelvis_tilt	pelvis_list	pelvis_rotation	pelvis_tx	pelvis_ty	pelvis_tz	hip_flexion_r	hip_adduction_r	hip_rotation_r	knee_angle_r	knee_angle_r_beta	ankle_angle_r	subtalar_angle_r	mtp_angle_r	hip_flexion_l	hip_adduction_l	hip_rotation_l	knee_angle_l	knee_angle_l_beta	ankle_angle_l	subtalar_angle_l	mtp_angle_l	L5_S1_Flex_Ext	L5_S1_Lat_Bending	L5_S1_axial_rotation	L4_L5_Flex_Ext	L4_L5_Lat_Bending	L4_L5_axial_rotation	L3_L4_Flex_Ext	L3_L4_Lat_Bending	L3_L4_axial_rotation	L2_L3_Flex_Ext	L2_L3_Lat_Bending	L2_L3_axial_rotation	L1_L2_Flex_Ext	L1_L2_Lat_Bending	L1_L2_axial_rotation	L1_T12_Flex_Ext	L1_T12_Lat_Bending	L1_T12_axial_rotation	Abs_r3	Abs_r2	Abs_r1	Abs_t1	Abs_t2	neck_flexion	neck_bending	neck_rotation	arm_flex_r	arm_add_r	arm_rot_r	elbow_flex_r	pro_sup_r	wrist_flex_r	wrist_dev_r	arm_flex_l	arm_add_l	arm_rot_l	elbow_flex_l	pro_sup_l	wrist_flex_l	wrist_dev_l
      2.03333333	     18.70711642	     -4.74907951	      5.55065819	     -0.68073879	      0.72054714	      0.14799523	     14.54736069	    -36.04139477	    -15.26658024	     80.00348385	      1.39632421	     30.83755080	    -19.72262359	      0.00000000	     39.32797296	     11.06873802	    -19.25391007	     63.97821152	      1.11663044	     22.24467823	     15.09424544	      0.00000000	     -7.12866309	      0.55434026	     -0.52834763	    -13.23864023	      0.73727254	     -0.56136936	    -11.71168059	      1.34782290	     -0.56136936	     -8.14734905	      1.34782290	     -0.46230418	     -6.61967655	      1.13041065	     -0.42928245	     -4.07331809	      0.85867306	     -0.39626073	    -50.91932760	      6.27080787	     -2.93851104	      0.00000000	      0.00000000	     28.32825341	     13.39798034	     43.84149812	     29.76286710	    -27.94766136	     14.41354910	     36.59486869	     89.99559364	      0.00000000	      0.00000000	     17.64362428	    -20.25219145	      5.43702192	     42.62172412	     89.99559364	      0.00000000	      0.00000000
      2.06666667	     19.54774382	     -5.17295820	      6.37940257	     -0.68837056	      0.67651968	      0.11792792	     19.34194139	    -37.94294091	     -8.95165024	     85.71054069	      1.49593114	     31.35876932	    -19.71969861	      0.00000000	     41.87373392	      9.01543097	    -26.38811358	     69.09892417	      1.20600374	     24.29692548	     16.61151474	      0.00000000	     -7.31997071	      0.68005428	     -0.44622179	    -13.59391760	      0.90447219	     -0.47411066	    -12.02597987	      1.65348397	     -0.47411066	     -8.36599452	      1.65348397	     -0.39044407	     -6.79732480	      1.38676668	     -0.36255521	     -4.18263126	      1.05340407	     -0.33466635	    -52.28581875	      7.69290998	     -2.48175175	      0.00000000	      0.00000000	     28.37176626	     12.66253031	     44.04308006	     31.81940612	    -30.79278666	     15.52304965	     41.32138564	     89.99559364	      0.00000000	      0.00000000	     18.40675429	    -21.31510805	      5.23906050	     43.00045194	     89.99559364	      0.00000000	      0.00000000
      2.10000000	     21.17867977	     -6.23038358	      7.06630980	     -0.69575195	      0.63077741	      0.08633601	     23.22831063	    -38.98616589	     -2.57450336	     90.48205072	      1.57920970	     31.74845201	    -19.70657950	      0.00000000	     43.30573884	      6.43803050	    -32.89788563	     74.21137893	      1.29523290	     25.42788060	     17.90961202	      0.00000000	     -7.60557370	      0.84186807	     -0.30959626	    -14.12431092	      1.11968453	     -0.32894602	    -12.49519704	      2.04691801	     -0.32894602	     -8.69241018	      2.04691801	     -0.27089672	     -7.06253574	      1.71673736	     -0.25154696	     -4.34582481	      1.30405363	     -0.23219719	    -54.32585240	      9.52337993	     -1.72188149	      0.00000000	      0.00000000	     28.40884441	     11.99114561	     44.21989285	     34.87425916	    -32.75633399	     15.71256942	     43.69253418	     89.99559364	      0.00000000	      0.00000000	     19.21610348	    -22.45506932	      4.82493078	     43.23042062	     89.99559364	      0.00000000	      0.00000000
      2.13333333	     23.34041464	     -8.25733732	      8.27465859	     -0.70240013	      0.58360751	      0.05237771	     25.55654025	    -39.16265563	      2.61122904	     94.05590309	      1.64158519	     31.99925894	    -19.68477412	      0.00000000	     44.23366624	      3.92830486	    -37.78560119	     79.13434540	      1.38115488	     25.42136773	     18.34263292	      0.00000000	     -7.92503188	      1.09298593	     -0.19941889	    -14.71757671	      1.45367128	     -0.21188257	    -13.02003488	      2.65748598	     -0.21188257	     -9.05751894	      2.65748598	     -0.17449153	     -7.35918461	      2.22881690	     -0.16202785	     -4.52836322	      1.69303520	     -0.14956417	    -56.60771025	     12.36407540	     -1.10910803	      0.00000000	      0.00000000	     28.44136884	     11.29087874	     44.34763502	     37.99651661	    -34.56922814	     16.41844250	     46.30852145	     89.99559364	      0.00000000	      0.00000000	     19.73566284	    -23.73978062	      4.48659421	     43.54893882	     89.99559364	      0.00000000	      0.00000000
